<svg xmlns="http://www.w3.org/2000/svg" xmlns:xlink="http://www.w3.org/1999/xlink" width="220pt" height="250pt" style="fill-opacity:1;fill-rule:evenodd;stroke:none">
  <defs>
    <linearGradient id="gr1">
      <stop offset="0" style="stop-color:#000000;stop-opacity:0.1"/>
      <stop offset="1" style="stop-color:#000000;stop-opacity:0"/>
    </linearGradient>
    <linearGradient id="gr2" xlink:href="#gr1" x1="0.052" y1="0.977" x2="0.783" y2="0"/>
    <linearGradient id="gr3">
      <stop offset="0" style="stop-color:#ffffff;stop-opacity:1"/>
      <stop offset="1" style="stop-color:#ffffff;stop-opacity:0"/>
    </linearGradient>
    <linearGradient id="gr4" xlink:href="#gr3" x1="1.557" y1="-0.553" x2="0.063" y2="0.547"/>
    <linearGradient id="gr5">
      <stop offset="0" style="stop-color:#dadada;stop-opacity:1"/>
      <stop offset="0.35" style="stop-color:#f1f1f1;stop-opacity:1"/>
      <stop offset="1" style="stop-color:#f0f0f0;stop-opacity:1"/>
    </linearGradient>
    <linearGradient id="gr6" xlink:href="#gr5" x1="0.88" y1="0.211" x2="0.085" y2="1.18"/>
    <linearGradient id="gr7" xlink:href="#gr5" x1="0.632" y1="0.328" x2="-0.376" y2="1.328"/>
    <path id="pathTagXML" d="M4.2424884,2.9393196L7.1663165,2.9393196L8.689754,5.5818977L10.166317,2.9393196L13.060848,2.9393196L10.388973,7.0994759L13.312801,11.529163L10.330379,11.529163L8.6370196,8.7693977L6.9378009,11.529163L3.9729571,11.529163L6.9378009,7.0526009L4.2424884,2.9393196zM14.133113,2.9393196L17.625301,2.9393196L18.972957,8.1658821L20.314754,2.9393196L23.795223,2.9393196L23.795223,11.529163L21.627254,11.529163L21.627254,4.9783821L19.945613,11.529163L17.982723,11.529163L16.306942,4.9783821L16.306942,11.529163L14.133113,11.529163L14.133113,2.9393196zM25.482723,2.9393196L28.13702,2.9393196L28.13702,9.413929L32.279598,9.413929L32.279598,11.529163L25.482723,11.529163L25.482723,2.9393196z"/>
  </defs>
  <g id="gPage" transform="matrix(1.591778,0,0,1.623449,182,142)">
    <path id="pathPageUnderShadow" style="fill:url(#gr2);fill-opacity:0.75" d="M-107.71068,-81.020338L-107.71068,-37.362645L-107.71068,6.2950448L-107.71068,49.952737L-107.71068,93.610429L-68.01179,93.610429L-28.312898,93.610429L11.38599,93.610429L51.084874,93.610429L51.084874,49.952737L51.084874,6.2950448L51.084874,-37.362645L11.38599,-81.020338L-28.312898,-81.020338L-68.01179,-81.020338L-107.71068,-81.020338zM-107.48888,-81.600638C-107.48888,-22.811633,-107.48888,35.977367,-107.48888,94.766369C-53.768362,94.766369,-0.047842466,94.766369,53.672676,94.766369C53.672676,50.573257,53.672676,6.3801468,53.672676,-37.812967C40.223274,-52.604441,26.778956,-67.40081,13.3167,-82.180903C-26.951828,-82.180903,-67.220352,-82.180903,-107.48888,-82.180903C-107.48888,-82.061875,-107.48888,-81.67503,-107.48888,-81.600638zM-107.61411,-82.761167C-107.61411,-23.198479,-107.61411,36.364211,-107.61411,95.926899C-53.10274,95.926899,1.4086235,95.926899,55.919998,95.926899C55.919998,51.198157,55.919998,6.4694188,55.919998,-38.259325C42.25012,-53.288903,28.58516,-68.323228,14.902438,-83.341432C-25.93641,-83.341432,-66.775256,-83.341432,-107.61411,-83.341432C-107.61411,-83.222405,-107.61411,-82.835559,-107.61411,-82.761167z"/>
    <path id="pathPageFill" style="fill:#ffffff" d="M-111.00205,-84.420766L-111.00205,-40.333685L-111.00205,3.7533948L-111.00205,47.840475L-111.00205,91.927555L-70.768866,91.927555L-30.535706,91.927555L9.6974535,91.927555L49.930648,91.927555L49.930648,47.840475L49.930648,3.7533948L49.930648,-40.333685L9.6974535,-84.420766L-30.535706,-84.420766L-70.768866,-84.420766L-111.00205,-84.420766z"/>
    <path id="pathPageTopRightShadow" style="fill:url(#gr6);stroke:#000000;stroke-width:0.51178849;stroke-opacity:0.36" d="M-111.326,-84.202166L-111.326,-40.115085L-111.326,3.9719948L-111.326,48.059095L-111.326,92.146155L-71.092836,92.146155L-30.859656,92.146155L9.3735035,92.146155L49.606668,92.146155L49.606668,48.059095L49.606668,3.9719948L49.606668,-40.115085L9.3735035,-84.202166L-30.859656,-84.202166L-71.092836,-84.202166L-111.326,-84.202166z"/>
    <path id="pathPageBotLeftHilite" style="fill:url(#gr4)" d="M-107.83333,-72.168402L-108.55815,89.466198L49.452406,89.466198L49.543006,49.510538C46.009506,50.869578,10.312146,0.31345831,-34.626624,2.4879183C-79.606204,4.6643583,-67.968304,-65.645043,-107.83333,-72.168402z"/>
  </g>
  <text id="textSampleXML" style="font-family:'Courier New','Courier 10 Pitch',monospace;font-weight:normal;font-style:normal;font-stretch:normal;font-variant:normal;font-size:18;line-height:22;text-anchor:start;fill:#000000" transform="matrix(0.75,0,0,1,18,10)">
    <tspan x="0" y="22">&lt;?xml version=&quot;1.0&quot;?&gt;</tspan>
    <tspan x="0" y="44">&lt;quiz&gt;</tspan>
    <tspan x="10" y="66">&lt;question&gt;</tspan>
    <tspan x="20" y="88">Кто был первым</tspan>
    <tspan x="20" y="110">капитаном &quot;Созвездия&quot;?</tspan>
    <tspan x="10" y="132">&lt;/question&gt;</tspan>
    <tspan x="10" y="154">&lt;answer&gt;</tspan>
    <tspan x="20" y="176">Максим &quot;Везунчик&quot;</tspan>
    <tspan x="20" y="198">Киркунов</tspan>
    <tspan x="10" y="220">&lt;/answer&gt;</tspan>
    <tspan x="10" y="242" style="fill:#969696">&lt;!--Больше вопросов нет.--&gt;</tspan>
    <tspan x="0" y="264">&lt;/quiz&gt;</tspan>
  </text>
  <path id="pathPageCorner" style="fill:url(#gr7)" transform="matrix(1.591778,0,0,1.623449,182.3067,142.2502)" d="M48.966248,-40.115085C36.836494,-43.706085,21.119074,-43.196885,9.2456135,-41.150125C11.295694,-54.304905,11.551954,-70.791106,8.7330735,-84.202166L48.966248,-40.115085z"/>
  <g id="gTagXML" transform="matrix(2,0,0,2,201,278)">
    <path style="fill:#803300" d="M36,14L35,13L35,1L36,0L36,14z"/>
    <rect style="fill:#ff6600" width="34" height="12" x="1" y="1"/>
    <path style="fill:#ffccaa" d="M0,0L36,0L35,1L1,1L0,0z"/>
    <path style="fill:#552200" d="M0,14L36,14L35,13L1,13L0,14z"/>
    <path style="fill:#ff9955" d="M1,13L0,14L0,0L1,1L1,13z"/>
    <use xlink:href="#pathTagXML" style="fill:#803300" transform="translate(1,1)"/>
    <use xlink:href="#pathTagXML" style="fill:#ffffff"/>
  </g>
</svg>
